<?xml version="1.0" encoding="UTF-8"?>
<!DOCTYPE svg PUBLIC "-//W3C//DTD SVG 1.1//EN" "http://www.w3.org/Graphics/SVG/1.1/DTD/svg11.dtd">
<!-- Creator: CorelDRAW -->
<svg xmlns="http://www.w3.org/2000/svg" xml:space="preserve" width="300.919mm" height="187.678mm" version="1.1" style="shape-rendering:geometricPrecision; text-rendering:geometricPrecision; image-rendering:optimizeQuality; fill-rule:evenodd; clip-rule:evenodd"
viewBox="0 0 30091.94 18767.78"
 xmlns:xlink="http://www.w3.org/1999/xlink"
 xmlns:xodm="http://www.corel.com/coreldraw/odm/2003">
 <defs>
  <style type="text/css">
   <![CDATA[
    .str0 {stroke:#373435;stroke-width:7.62;stroke-miterlimit:22.9256}
    .fil0 {fill:none}
    .fil1 {fill:#29241D;fill-rule:nonzero}
   ]]>
  </style>
 </defs>
 <g id="Camada_x0020_1">
  <metadata id="CorelCorpID_0Corel-Layer"/>
  <polygon id="tamanho_x0020_mapa" class="fil0 str0" points="-3008.28,-1878.56 33091.42,-1878.56 33091.42,20663.94 -3008.28,20663.94 "/>
  <g id="MAPA">
   <g id="nomes_x0020_bairros">
    <path class="fil1" d="M19819.92 6369.18l29.07 0.99 4.23 -3.81 0.29 -17.36 -6.42 -5 5.01 -4.59 -2.12 -23.99 -4.52 -1.97 -24.2 1.2 -2.25 4.16 0.91 50.37zm12.7 -22.01l8.05 -0.42 2.68 11.43 -11.01 2.32 0.28 -13.33zm-1.13 -23.42l6.21 -1.55 1.55 1.41 0.99 9.73 -8.75 0.71 0 -10.3zm51.64 -9.03l-0.63 21.09 -11.36 0.5 0.57 -23.29 -13.97 1.56 1.55 54.32 11 -0.28 0.64 -25.61 11.36 -0.78 -0.85 25.54 9.46 0.99 6.49 -53.05 -14.26 -0.99zm50.51 0l-7.33 7.48 0.7 6.63 5.36 -0.28 1.41 38.52 14.96 -0.15 -3.38 -53.19 -11.72 0.99zm-389.77 442.97l29.07 0.99 4.23 -3.81 0.29 -17.36 -6.42 -5 5.01 -4.59 -2.12 -23.99 -4.52 -1.97 -24.2 1.2 -2.25 4.16 0.91 50.37zm12.7 -22.01l8.05 -0.42 2.68 11.43 -11.01 2.32 0.28 -13.33zm-1.13 -23.42l6.21 -1.55 1.55 1.41 0.99 9.73 -8.75 0.71 0 -10.3zm51.64 -9.03l-0.63 21.09 -11.36 0.5 0.57 -23.29 -13.97 1.56 1.55 54.32 11 -0.28 0.64 -25.61 11.36 -0.78 -0.85 25.54 9.46 0.99 6.49 -53.05 -14.26 -0.99zm45.58 3.67l-2.4 20.24 11.92 -1.12 -0.49 -7.41 12.48 -1.84 0.29 5.01 -22.65 20.67 0.85 16.23 35.55 -1.55 -0.14 -15.88 -6 0 -0.49 4.73 -16.37 0.28 22.09 -18.06 -1.84 -20.39 -3.53 -3.31 -20.88 -0.57 -8.39 2.97zm611.74 -434.49l0.42 17.43 1.76 3.31 33.8 -1.27 -1.98 -35.91 -20.46 -1.06 0 -6.77 12.56 -1.34 -0.49 3.53 7.33 0 1.98 -13.55 -34.43 1.13 0.49 28.57 20.96 2.12 0 12.56 -8.82 -0.57 -1.48 -8.75 -11.64 0.57zm48.95 -34.43l-8.74 54.32 17.07 0.15 0.85 -14.26 6.06 -0.7 1.56 15.52 10.86 -0.71 -8.32 -55.73 -19.34 1.41zm9.18 10.87l4.37 20.17 -6.21 0 1.84 -20.17zm24.27 -9.46l-1.55 50.23 14.25 1.13 0.56 -38.24 11.57 36.83 10.73 -0.42 -2.26 -52.35 -8.47 1.13 3.11 36.26 -11.71 -35.98 -16.23 1.41zm45.43 9.95l0.63 42.82 12.42 0.22 -0.57 -42.76 8.68 0.35 0.71 -11.85 -28.72 -0.56 -0.98 11.14 7.83 0.64zm28.21 -11.36l-8.74 54.32 17.07 0.15 0.85 -14.26 6.06 -0.7 1.56 15.52 10.86 -0.71 -8.32 -55.73 -19.34 1.41zm9.18 10.87l4.37 20.17 -6.21 0 1.84 -20.17zm53.33 -10.87l-5.22 5.08 -0.7 42.89 4.37 6.5 27.94 -0.43 1.27 -17.21 -5.79 -0.14 -3.38 8.32 -8.47 -0.42 -2.26 -34.43 11.86 0.14 0.7 9.45 4.66 0 1.48 -16.57 -2.54 -3.67 -23.92 0.49zm31.89 0l1.55 53.62 22.57 -0.42 -0.84 -10.02 -9.17 0.28 -0.85 -42.61 -13.26 -0.85zm35.62 0l-8.74 54.32 17.07 0.15 0.85 -14.26 6.06 -0.7 1.56 15.52 10.86 -0.71 -8.32 -55.73 -19.34 1.41zm9.18 10.87l4.37 20.17 -6.21 0 1.84 -20.17zm22.22 -11.72l-1.69 54.33 15.09 0.56 -0.14 -23.56 0.43 0 12.84 23.99 8.74 -1.27 -12.41 -23.43 7.9 -0.56 4.51 -4.94 -1.83 -24.27 -2.26 -1.41 -31.18 0.56zm11.29 7.06l9.87 0 2.12 8.89 -1.55 6.91 -10.02 -0.56 -0.42 -15.24zm34.77 -6.21l-8.74 54.32 17.07 0.15 0.85 -14.26 6.06 -0.7 1.56 15.52 10.86 -0.71 -8.32 -55.73 -19.34 1.41zm9.18 10.87l4.37 20.17 -6.21 0 1.84 -20.17zm185.14 289.04l-5.64 7.76 1.27 44.17 4.65 3.24 25.4 -1.41 4.66 -13.26 -2.68 -14.11 -12.84 0.99 0.98 15.8 -6.91 1.27 -1.98 -34 3.53 -0.71 3.25 7.34 12.98 -1.41 -2.54 -14.68 -4.66 -2.68 -19.47 1.69zm34 -1.27l-1.69 54.33 15.09 0.56 -0.14 -23.56 0.43 0 12.84 23.99 8.74 -1.27 -12.41 -23.43 7.9 -0.56 4.51 -4.94 -1.83 -24.27 -2.26 -1.41 -31.18 0.56zm11.29 7.06l9.87 0 2.12 8.89 -1.55 6.91 -10.02 -0.56 -0.42 -15.24zm28.29 44.66c0,0.07 2.68,4.09 2.82,4.16l25.68 0 3.67 -2.4 -0.99 -47.97 -1.48 -3.39 -8.19 0.57 0 36.33 -11 0.42 -2.05 -36.19 -8.53 0.92 0.07 47.55zm36.4 -51.29l0.56 20.32 4.66 -0.15 0.28 -6.34 18.06 -0.71 -22.72 24.69 -0.63 14.68 39.72 -0.85 -1.13 -16.23 -6.63 0.29 0.21 4.93 -16.02 0.71 23.29 -29.63 -0.71 -10.3 -38.94 -1.41zm44.16 0.56l0.49 50.66 1.91 3.45 31.6 0.78 0 -12.98 -21.3 0.99 -0.43 -10.87 15.24 -3.67 -0.56 -8.04 -13.69 -2.82 -0.14 -7.2 18.2 0.57 -0.56 -10.44 -30.76 -0.43zm35.42 1.98l2.54 52.91 10.16 -0.99 2.82 -52.35 -15.52 0.43zm21.44 -2.97l-1.69 54.33 15.09 0.56 -0.14 -23.56 0.43 0 12.84 23.99 8.74 -1.27 -12.41 -23.43 7.9 -0.56 4.51 -4.94 -1.83 -24.27 -2.26 -1.41 -31.18 0.56zm11.29 7.06l9.87 0 2.12 8.89 -1.55 6.91 -10.02 -0.56 -0.42 -15.24zm31.74 -5.93l-5.5 8.61 -0.21 33.72 2.68 9.6 29.98 -0.28 3.32 -8.61 -1.06 -37.04 -4.09 -4.87 -25.12 -1.13zm6.63 14.47l7.83 -1.84 1.56 15.45 -1.27 9.1 -6.42 0.29 -1.7 -23zm-173.44 418.57l0.42 17.43 1.76 3.31 33.8 -1.27 -1.98 -35.91 -20.46 -1.06 0 -6.77 12.56 -1.34 -0.49 3.53 7.33 0 1.98 -13.55 -34.43 1.13 0.49 28.57 20.96 2.12 0 12.56 -8.82 -0.57 -1.48 -8.75 -11.64 0.57zm48.95 -34.43l-8.74 54.32 17.07 0.15 0.85 -14.26 6.06 -0.7 1.56 15.52 10.86 -0.71 -8.32 -55.73 -19.34 1.41zm9.18 10.87l4.37 20.17 -6.21 0 1.84 -20.17zm-9.46 -15.95l4.38 1.84 1.83 -2.69 8.61 3.39 2.4 -0.99 2.25 -7.19 -4.79 -0.43 -0.85 2.68 -1.41 1.42 -6.63 -4.38 -3.39 0.99 -2.4 5.36zm36.48 5.36l-5.5 8.61 -0.21 33.72 2.68 9.6 29.98 -0.28 3.32 -8.61 -1.06 -37.04 -4.09 -4.87 -25.12 -1.13zm6.63 14.47l7.83 -1.84 1.56 15.45 -1.27 9.1 -6.42 0.29 -1.7 -23zm53.4 -13.41l1.98 12.49 14.67 -1.91 1.41 29 -2.89 6.21 -10.16 -6.77 -5.85 7.05 7.4 7.62 20.39 -1.27 3.88 -7.62 -1.41 -46 -29.42 1.2zm40.78 -1.06l-5.5 8.61 -0.21 33.72 2.68 9.6 29.98 -0.28 3.32 -8.61 -1.06 -37.04 -4.09 -4.87 -25.12 -1.13zm6.63 14.47l7.83 -1.84 1.56 15.45 -1.27 9.1 -6.42 0.29 -1.7 -23zm27.87 39.22l32.31 1.27 3.67 -4.02 -0.71 -33.09 -22.29 -1.2 -0.36 -8.6 15.53 0.21 0.21 5.78 6.91 0.14 0.57 -14.46 -33.87 -0.63 -1.48 1.62 -0.49 21.59 1.83 4.09 19.61 -0.28 2.4 3.31 -0.91 12 -10.31 -0.22 -1.34 -9.31 -10.15 1.2 -1.13 20.6zm40.21 -53.83l0.49 50.66 1.91 3.45 31.6 0.78 0 -12.98 -21.3 0.99 -0.43 -10.87 15.24 -3.67 -0.56 -8.04 -13.69 -2.82 -0.14 -7.2 18.2 0.57 -0.56 -10.44 -30.76 -0.43zm11.28 -8.61l0 4.8 5.23 0 6.34 -4.23 -4.51 -4.52 -7.06 3.95zm-1025.8 720.07l11.01 -0.85c0,-0.07 0.07,-0.14 0.07,-0.14l0.99 -12.56 8.96 13.48 13.19 0 -16.86 -24.7 16.15 -1.05 1.35 -18.42 -2.61 -11.07 -31.75 0 -1.27 20.31 -0.14 35 0.91 0zm13.06 -42.83l8.25 -1.2 0 6.99 -8.25 0.99 0 -6.78zm31.74 -11.64l-5.5 8.61 -0.21 33.72 2.68 9.6 29.98 -0.28 3.32 -8.61 -1.06 -37.04 -4.09 -4.87 -25.12 -1.13zm6.63 14.47l7.83 -1.84 1.56 15.45 -1.27 9.1 -6.42 0.29 -1.7 -23zm27.87 39.22l32.31 1.27 3.67 -4.02 -0.71 -33.09 -22.29 -1.2 -0.36 -8.6 15.53 0.21 0.21 5.78 6.91 0.14 0.57 -14.46 -33.87 -0.63 -1.48 1.62 -0.49 21.59 1.83 4.09 19.61 -0.28 2.4 3.31 -0.91 12 -10.31 -0.22 -1.34 -9.31 -10.15 1.2 -1.13 20.6zm48.95 -53.97l-8.74 54.32 17.07 0.15 0.85 -14.26 6.06 -0.7 1.56 15.52 10.86 -0.71 -8.32 -55.73 -19.34 1.41zm9.18 10.87l4.37 20.17 -6.21 0 1.84 -20.17zm-5.51 -19.34l0 4.8 5.22 0 6.35 -4.23 -4.51 -4.52 -7.06 3.95zm27.73 7.62l-1.69 54.33 15.09 0.56 -0.14 -23.56 0.43 0 12.84 23.99 8.74 -1.27 -12.41 -23.43 7.9 -0.56 4.51 -4.94 -1.83 -24.27 -2.26 -1.41 -31.18 0.56zm11.29 7.06l9.87 0 2.12 8.89 -1.55 6.91 -10.02 -0.56 -0.42 -15.24zm28.22 -4.09l2.54 52.91 10.16 -0.99 2.82 -52.35 -15.52 0.43zm25.46 -1.84l-5.5 8.61 -0.21 33.72 2.68 9.6 29.98 -0.28 3.32 -8.61 -1.06 -37.04 -4.09 -4.87 -25.12 -1.13zm6.63 14.47l7.83 -1.84 1.56 15.45 -1.27 9.1 -6.42 0.29 -1.7 -23zm-881.05 65.69l-5.22 5.08 -0.7 42.89 4.37 6.5 27.94 -0.43 1.27 -17.21 -5.79 -0.14 -3.38 8.32 -8.47 -0.42 -2.26 -34.43 11.86 0.14 0.7 9.45 4.66 0 1.48 -16.57 -2.54 -3.67 -23.92 0.49zm31.89 0.14l0.49 50.66 1.91 3.45 31.6 0.78 0 -12.98 -21.3 0.99 -0.43 -10.87 15.24 -3.67 -0.56 -8.04 -13.69 -2.82 -0.14 -7.2 18.2 0.57 -0.56 -10.44 -30.76 -0.43zm38.45 1.27l-1.55 50.23 14.25 1.13 0.56 -38.24 11.57 36.83 10.73 -0.42 -2.26 -52.35 -8.47 1.13 3.11 36.26 -11.71 -35.98 -16.23 1.41zm45.43 9.95l0.63 42.82 12.42 0.22 -0.57 -42.76 8.68 0.35 0.71 -11.85 -28.72 -0.56 -0.98 11.14 7.83 0.64zm25.6 -12.21l-1.69 54.33 15.09 0.56 -0.14 -23.56 0.43 0 12.84 23.99 8.74 -1.27 -12.41 -23.43 7.9 -0.56 4.51 -4.94 -1.83 -24.27 -2.26 -1.41 -31.18 0.56zm11.29 7.06l9.87 0 2.12 8.89 -1.55 6.91 -10.02 -0.56 -0.42 -15.24zm31.74 -5.93l-5.5 8.61 -0.21 33.72 2.68 9.6 29.98 -0.28 3.32 -8.61 -1.06 -37.04 -4.09 -4.87 -25.12 -1.13zm6.63 14.47l7.83 -1.84 1.56 15.45 -1.27 9.1 -6.42 0.29 -1.7 -23zm-1637.78 355.57l0.42 17.43 1.76 3.31 33.8 -1.27 -1.98 -35.91 -20.46 -1.06 0 -6.77 12.56 -1.34 -0.49 3.53 7.33 0 1.98 -13.55 -34.43 1.13 0.49 28.57 20.96 2.12 0 12.56 -8.82 -0.57 -1.48 -8.75 -11.64 0.57zm48.95 -34.43l-8.74 54.32 17.07 0.15 0.85 -14.26 6.06 -0.7 1.56 15.52 10.86 -0.71 -8.32 -55.73 -19.34 1.41zm9.18 10.87l4.37 20.17 -6.21 0 1.84 -20.17zm-9.46 -15.95l4.38 1.84 1.83 -2.69 8.61 3.39 2.4 -0.99 2.25 -7.19 -4.79 -0.43 -0.85 2.68 -1.41 1.42 -6.63 -4.38 -3.39 0.99 -2.4 5.36zm36.48 5.36l-5.5 8.61 -0.21 33.72 2.68 9.6 29.98 -0.28 3.32 -8.61 -1.06 -37.04 -4.09 -4.87 -25.12 -1.13zm6.63 14.47l7.83 -1.84 1.56 15.45 -1.27 9.1 -6.42 0.29 -1.7 -23zm52.56 -16.16l1.27 56.44 26.95 0 5.36 -7.76 1.69 -44.16 -7.62 -6.35 -27.65 1.83zm11.28 8.89l8.33 -0.57 1.55 3.39 0 30.62 -1.69 3.39 -7.62 -0.14 -0.57 -36.69zm28.23 -5.36l2.54 52.91 10.16 -0.99 2.82 -52.35 -15.52 0.43zm22 -1.7l-2.25 53.2 16.22 1.41 -0.7 -44.59 6.06 36.69 10.87 0.7 6.63 -35.27 1.13 42.47 12.42 0 -5.93 -55.45 -13.12 1.83 -5.5 27.38 -6.92 -26.11 -18.91 -2.26zm63.35 -0.42l-8.74 54.32 17.07 0.15 0.85 -14.26 6.06 -0.7 1.56 15.52 10.86 -0.71 -8.32 -55.73 -19.34 1.41zm9.18 10.87l4.37 20.17 -6.21 0 1.84 -20.17zm22.72 43.1l32.31 1.27 3.67 -4.02 -0.71 -33.09 -22.29 -1.2 -0.36 -8.6 15.53 0.21 0.21 5.78 6.91 0.14 0.57 -14.46 -33.87 -0.63 -1.48 1.62 -0.49 21.59 1.83 4.09 19.61 -0.28 2.4 3.31 -0.91 12 -10.31 -0.22 -1.34 -9.31 -10.15 1.2 -1.13 20.6zm99.58 469.45l2.11 53.76 17.57 0.92 1.48 6.42 6.63 -0.57 -1.9 -5.57 7.69 0.35 3.24 -55.31 -36.82 0zm18.13 47.62l-4.73 -0.07 -3.53 -29.49 13.27 -0.85 0.56 30.48 -3.67 -10.02 -4.51 1.27 2.61 8.68zm23 3.53c0,0.07 2.68,4.09 2.82,4.16l25.68 0 3.67 -2.4 -0.99 -47.97 -1.48 -3.39 -8.19 0.57 0 36.33 -11 0.42 -2.05 -36.19 -8.53 0.92 0.07 47.55zm36.4 -48.75l2.54 52.91 10.16 -0.99 2.82 -52.35 -15.52 0.43zm21.3 -0.71l-1.55 50.23 14.25 1.13 0.56 -38.24 11.57 36.83 10.73 -0.42 -2.26 -52.35 -8.47 1.13 3.11 36.26 -11.71 -35.98 -16.23 1.41zm45.43 -0.99l-5.64 7.76 1.27 44.17 4.65 3.24 25.4 -1.41 4.66 -13.26 -2.68 -14.11 -12.84 0.99 0.98 15.8 -6.91 1.27 -1.98 -34 3.53 -0.71 3.25 7.34 12.98 -1.41 -2.54 -14.68 -4.66 -2.68 -19.47 1.69zm40.35 -0.42l-8.74 54.32 17.07 0.15 0.85 -14.26 6.06 -0.7 1.56 15.52 10.86 -0.71 -8.32 -55.73 -19.34 1.41zm9.18 10.87l4.37 20.17 -6.21 0 1.84 -20.17zm22.72 43.1l32.31 1.27 3.67 -4.02 -0.71 -33.09 -22.29 -1.2 -0.36 -8.6 15.53 0.21 0.21 5.78 6.91 0.14 0.57 -14.46 -33.87 -0.63 -1.48 1.62 -0.49 21.59 1.83 4.09 19.61 -0.28 2.4 3.31 -0.91 12 -10.31 -0.22 -1.34 -9.31 -10.15 1.2 -1.13 20.6zm82.25 1.06l4.23 -47.13 12.99 0.71 0.98 -9.31 -34.71 0 -0.84 7.47 6.7 0.71 -1.76 46.42 12.41 1.13zm20.82 -52.91l2.54 52.91 10.16 -0.99 2.82 -52.35 -15.52 0.43zm21.3 -1.84l-1.55 53.76 31.6 0.99 5.36 -6.07 0.15 -20.46 -4.66 -3.52 2.54 -4.38 -2.54 -16.65 -3.67 -3.67 -27.23 0zm15.24 29.21l5.92 0.71 0.99 12.55 -1.27 3.11 -6.07 0 0.43 -16.37zm-1.13 -21.31l4.94 0.15 0.7 3.24 -0.7 8.18 -4.66 0 -0.28 -11.57zm25.75 42.69c0,0.07 2.68,4.09 2.82,4.16l25.68 0 3.67 -2.4 -0.99 -47.97 -1.48 -3.39 -8.19 0.57 0 36.33 -11 0.42 -2.05 -36.19 -8.53 0.92 0.07 47.55zm38.09 -51.72l-1.69 54.33 15.09 0.56 -0.14 -23.56 0.43 0 12.84 23.99 8.74 -1.27 -12.41 -23.43 7.9 -0.56 4.51 -4.94 -1.83 -24.27 -2.26 -1.41 -31.18 0.56zm11.29 7.06l9.87 0 2.12 8.89 -1.55 6.91 -10.02 -0.56 -0.42 -15.24zm31.67 -5.79l-5.64 7.76 1.27 44.17 4.65 3.24 25.4 -1.41 4.66 -13.26 -2.68 -14.11 -12.84 0.99 0.98 15.8 -6.91 1.27 -1.98 -34 3.53 -0.71 3.25 7.34 12.98 -1.41 -2.54 -14.68 -4.66 -2.68 -19.47 1.69zm30.83 1.7l2.54 52.91 10.16 -0.99 2.82 -52.35 -15.52 0.43zm25.46 -1.84l-5.5 8.61 -0.21 33.72 2.68 9.6 29.98 -0.28 3.32 -8.61 -1.06 -37.04 -4.09 -4.87 -25.12 -1.13zm6.63 14.47l7.83 -1.84 1.56 15.45 -1.27 9.1 -6.42 0.29 -1.7 -23zm-1761.83 385.85l0.42 17.43 1.76 3.31 33.8 -1.27 -1.98 -35.91 -20.46 -1.06 0 -6.77 12.56 -1.34 -0.49 3.53 7.33 0 1.98 -13.55 -34.43 1.13 0.49 28.57 20.96 2.12 0 12.56 -8.82 -0.57 -1.48 -8.75 -11.64 0.57zm48.95 -34.43l-8.74 54.32 17.07 0.15 0.85 -14.26 6.06 -0.7 1.56 15.52 10.86 -0.71 -8.32 -55.73 -19.34 1.41zm9.18 10.87l4.37 20.17 -6.21 0 1.84 -20.17zm24.27 -9.46l-1.55 50.23 14.25 1.13 0.56 -38.24 11.57 36.83 10.73 -0.42 -2.26 -52.35 -8.47 1.13 3.11 36.26 -11.71 -35.98 -16.23 1.41zm45.43 9.95l0.63 42.82 12.42 0.22 -0.57 -42.76 8.68 0.35 0.71 -11.85 -28.72 -0.56 -0.98 11.14 7.83 0.64zm29.55 -11.08l-5.5 8.61 -0.21 33.72 2.68 9.6 29.98 -0.28 3.32 -8.61 -1.06 -37.04 -4.09 -4.87 -25.12 -1.13zm6.63 14.47l7.83 -1.84 1.56 15.45 -1.27 9.1 -6.42 0.29 -1.7 -23zm27.87 39.22l32.31 1.27 3.67 -4.02 -0.71 -33.09 -22.29 -1.2 -0.36 -8.6 15.53 0.21 0.21 5.78 6.91 0.14 0.57 -14.46 -33.87 -0.63 -1.48 1.62 -0.49 21.59 1.83 4.09 19.61 -0.28 2.4 3.31 -0.91 12 -10.31 -0.22 -1.34 -9.31 -10.15 1.2 -1.13 20.6zm64.9 -55.38l1.27 56.44 26.95 0 5.36 -7.76 1.69 -44.16 -7.62 -6.35 -27.65 1.83zm11.28 8.89l8.33 -0.57 1.55 3.39 0 30.62 -1.69 3.39 -7.62 -0.14 -0.57 -36.69zm29.92 -8.33l-1.69 54.33 15.09 0.56 -0.14 -23.56 0.43 0 12.84 23.99 8.74 -1.27 -12.41 -23.43 7.9 -0.56 4.51 -4.94 -1.83 -24.27 -2.26 -1.41 -31.18 0.56zm11.29 7.06l9.87 0 2.12 8.89 -1.55 6.91 -10.02 -0.56 -0.42 -15.24zm28.29 44.66c0,0.07 2.68,4.09 2.82,4.16l25.68 0 3.67 -2.4 -0.99 -47.97 -1.48 -3.39 -8.19 0.57 0 36.33 -11 0.42 -2.05 -36.19 -8.53 0.92 0.07 47.55zm38.65 -50.45l-2.25 53.2 16.22 1.41 -0.7 -44.59 6.06 36.69 10.87 0.7 6.63 -35.27 1.13 42.47 12.42 0 -5.93 -55.45 -13.12 1.83 -5.5 27.38 -6.92 -26.11 -18.91 -2.26zm58.13 -0.14l-5.5 8.61 -0.21 33.72 2.68 9.6 29.98 -0.28 3.32 -8.61 -1.06 -37.04 -4.09 -4.87 -25.12 -1.13zm6.63 14.47l7.83 -1.84 1.56 15.45 -1.27 9.1 -6.42 0.29 -1.7 -23zm29.42 -13.34l-1.55 50.23 14.25 1.13 0.56 -38.24 11.57 36.83 10.73 -0.42 -2.26 -52.35 -8.47 1.13 3.11 36.26 -11.71 -35.98 -16.23 1.41zm45.43 9.95l0.63 42.82 12.42 0.22 -0.57 -42.76 8.68 0.35 0.71 -11.85 -28.72 -0.56 -0.98 11.14 7.83 0.64zm189.81 472.08l10.16 54.46 16.93 -1.41 13.12 -52.07 -9.88 -0.56 -9.73 39.93 -5.93 -40.21 -14.67 -0.14zm44.45 1.55l2.54 52.91 10.16 -0.99 2.82 -52.35 -15.52 0.43zm19.75 -2.12l1.55 53.62 22.57 -0.42 -0.84 -10.02 -9.17 0.28 -0.85 -42.61 -13.26 -0.85zm35.62 0l-8.74 54.32 17.07 0.15 0.85 -14.26 6.06 -0.7 1.56 15.52 10.86 -0.71 -8.32 -55.73 -19.34 1.41zm9.18 10.87l4.37 20.17 -6.21 0 1.84 -20.17zm47.97 -10.02l-0.56 16.08 5.22 -0.14 -0.14 -5.08 22.15 -1.55 -23.85 26.67 -1.13 17.64 37.68 -1.42 -0.28 -17.49 -4.24 0.28 -1.83 10.16 -18.06 0.14 23.14 -33.44 -1.41 -13.55 -36.69 1.7zm52.34 -0.85l-8.74 54.32 17.07 0.15 0.85 -14.26 6.06 -0.7 1.56 15.52 10.86 -0.71 -8.32 -55.73 -19.34 1.41zm9.18 10.87l4.37 20.17 -6.21 0 1.84 -20.17zm22.78 -10.45l-2.25 53.2 16.22 1.41 -0.7 -44.59 6.06 36.69 10.87 0.7 6.63 -35.27 1.13 42.47 12.42 0 -5.93 -55.45 -13.12 1.83 -5.5 27.38 -6.92 -26.11 -18.91 -2.26zm58.13 -0.14l-5.5 8.61 -0.21 33.72 2.68 9.6 29.98 -0.28 3.32 -8.61 -1.06 -37.04 -4.09 -4.87 -25.12 -1.13zm6.63 14.47l7.83 -1.84 1.56 15.45 -1.27 9.1 -6.42 0.29 -1.7 -23zm27.94 36.12c0,0.07 2.68,4.09 2.82,4.16l25.68 0 3.67 -2.4 -0.99 -47.97 -1.48 -3.39 -8.19 0.57 0 36.33 -11 0.42 -2.05 -36.19 -8.53 0.92 0.07 47.55zm38.09 -51.72l-1.69 54.33 15.09 0.56 -0.14 -23.56 0.43 0 12.84 23.99 8.74 -1.27 -12.41 -23.43 7.9 -0.56 4.51 -4.94 -1.83 -24.27 -2.26 -1.41 -31.18 0.56zm11.29 7.06l9.87 0 2.12 8.89 -1.55 6.91 -10.02 -0.56 -0.42 -15.24zm34.77 -6.21l-8.74 54.32 17.07 0.15 0.85 -14.26 6.06 -0.7 1.56 15.52 10.86 -0.71 -8.32 -55.73 -19.34 1.41zm9.18 10.87l4.37 20.17 -6.21 0 1.84 -20.17zm91.65 -115.71l-5.22 5.08 -0.7 42.89 4.37 6.5 27.94 -0.43 1.27 -17.21 -5.79 -0.14 -3.38 8.32 -8.47 -0.42 -2.26 -34.43 11.86 0.14 0.7 9.45 4.66 0 1.48 -16.57 -2.54 -3.67 -23.92 0.49zm53.9 0.85l1.13 20.25 -9.25 0.14 1.2 -20.67 -14.95 -1.27 -0.14 54.18 11.99 0.42 1.48 -24.69 10.16 0.49 1.34 24.34 16.09 -0.56 -4.52 -53.48 -14.53 0.85zm30.54 -0.85l-8.74 54.32 17.07 0.15 0.85 -14.26 6.06 -0.7 1.56 15.52 10.86 -0.71 -8.32 -55.73 -19.34 1.41zm9.18 10.87l4.37 20.17 -6.21 0 1.84 -20.17zm-5.51 -19.34l0 4.8 5.22 0 6.35 -4.23 -4.51 -4.52 -7.06 3.95zm30.98 8.89l-5.64 7.76 1.27 44.17 4.65 3.24 25.4 -1.41 4.66 -13.26 -2.68 -14.11 -12.84 0.99 0.98 15.8 -6.91 1.27 -1.98 -34 3.53 -0.71 3.25 7.34 12.98 -1.41 -2.54 -14.68 -4.66 -2.68 -19.47 1.69zm40.35 -0.42l-8.74 54.32 17.07 0.15 0.85 -14.26 6.06 -0.7 1.56 15.52 10.86 -0.71 -8.32 -55.73 -19.34 1.41zm9.18 10.87l4.37 20.17 -6.21 0 1.84 -20.17zm22.22 -11.72l-1.69 54.33 15.09 0.56 -0.14 -23.56 0.43 0 12.84 23.99 8.74 -1.27 -12.41 -23.43 7.9 -0.56 4.51 -4.94 -1.83 -24.27 -2.26 -1.41 -31.18 0.56zm11.29 7.06l9.87 0 2.12 8.89 -1.55 6.91 -10.02 -0.56 -0.42 -15.24zm34.77 -6.21l-8.74 54.32 17.07 0.15 0.85 -14.26 6.06 -0.7 1.56 15.52 10.86 -0.71 -8.32 -55.73 -19.34 1.41zm9.18 10.87l4.37 20.17 -6.21 0 1.84 -20.17zm259.46 -369.7l5.01 13.61 9.1 -1.12 -12.06 -53.27 -20.39 -0.49 -10.79 55.66 12.98 -0.63 1.97 -12.92 14.18 -0.84zm-9.73 -31.61l7.69 24.84 -10.73 -0.64 3.04 -24.2zm27.58 -9.95l-1.69 54.33 15.09 0.56 -0.14 -23.56 0.43 0 12.84 23.99 8.74 -1.27 -12.41 -23.43 7.9 -0.56 4.51 -4.94 -1.83 -24.27 -2.26 -1.41 -31.18 0.56zm11.29 7.06l9.87 0 2.12 8.89 -1.55 6.91 -10.02 -0.56 -0.42 -15.24zm28.22 -6.07l0.49 50.66 1.91 3.45 31.6 0.78 0 -12.98 -21.3 0.99 -0.43 -10.87 15.24 -3.67 -0.56 -8.04 -13.69 -2.82 -0.14 -7.2 18.2 0.57 -0.56 -10.44 -30.76 -0.43zm47.12 -0.14l-8.74 54.32 17.07 0.15 0.85 -14.26 6.06 -0.7 1.56 15.52 10.86 -0.71 -8.32 -55.73 -19.34 1.41zm9.18 10.87l4.37 20.17 -6.21 0 1.84 -20.17zm-9.46 -15.95l4.38 1.84 1.83 -2.69 8.61 3.39 2.4 -0.99 2.25 -7.19 -4.79 -0.43 -0.85 2.68 -1.41 1.42 -6.63 -4.38 -3.39 0.99 -2.4 5.36zm36.48 5.36l-5.5 8.61 -0.21 33.72 2.68 9.6 29.98 -0.28 3.32 -8.61 -1.06 -37.04 -4.09 -4.87 -25.12 -1.13zm6.63 14.47l7.83 -1.84 1.56 15.45 -1.27 9.1 -6.42 0.29 -1.7 -23zm307.12 -261.74l11.01 -0.85c0,-0.07 0.07,-0.14 0.07,-0.14l0.99 -12.56 8.96 13.48 13.19 0 -16.86 -24.7 16.15 -1.05 1.35 -18.42 -2.61 -11.07 -31.75 0 -1.27 20.31 -0.14 35 0.91 0zm13.06 -42.83l8.25 -1.2 0 6.99 -8.25 0.99 0 -6.78zm31.74 -11.64l-5.5 8.61 -0.21 33.72 2.68 9.6 29.98 -0.28 3.32 -8.61 -1.06 -37.04 -4.09 -4.87 -25.12 -1.13zm6.63 14.47l7.83 -1.84 1.56 15.45 -1.27 9.1 -6.42 0.29 -1.7 -23zm27.87 39.22l32.31 1.27 3.67 -4.02 -0.71 -33.09 -22.29 -1.2 -0.36 -8.6 15.53 0.21 0.21 5.78 6.91 0.14 0.57 -14.46 -33.87 -0.63 -1.48 1.62 -0.49 21.59 1.83 4.09 19.61 -0.28 2.4 3.31 -0.91 12 -10.31 -0.22 -1.34 -9.31 -10.15 1.2 -1.13 20.6zm40.21 -53.83l0.49 50.66 1.91 3.45 31.6 0.78 0 -12.98 -21.3 0.99 -0.43 -10.87 15.24 -3.67 -0.56 -8.04 -13.69 -2.82 -0.14 -7.2 18.2 0.57 -0.56 -10.44 -30.76 -0.43zm35.42 1.98l2.54 52.91 10.16 -0.99 2.82 -52.35 -15.52 0.43zm21.44 -2.97l-1.69 54.33 15.09 0.56 -0.14 -23.56 0.43 0 12.84 23.99 8.74 -1.27 -12.41 -23.43 7.9 -0.56 4.51 -4.94 -1.83 -24.27 -2.26 -1.41 -31.18 0.56zm11.29 7.06l9.87 0 2.12 8.89 -1.55 6.91 -10.02 -0.56 -0.42 -15.24zm34.77 -6.21l-8.74 54.32 17.07 0.15 0.85 -14.26 6.06 -0.7 1.56 15.52 10.86 -0.71 -8.32 -55.73 -19.34 1.41zm9.18 10.87l4.37 20.17 -6.21 0 1.84 -20.17zm20.53 -10.87l1.55 53.62 22.57 -0.42 -0.84 -10.02 -9.17 0.28 -0.85 -42.61 -13.26 -0.85zm-247.97 516.22l1.41 54.18 4.09 1.13 12.42 0 -4.1 -38.8 17.64 37.81 10.16 -0.28 -1.55 -55.17 -15.1 0.56 1.27 30.06 -15.38 -28.64 -10.86 -0.85zm51.57 0.56l-5.5 8.61 -0.21 33.72 2.68 9.6 29.98 -0.28 3.32 -8.61 -1.06 -37.04 -4.09 -4.87 -25.12 -1.13zm6.63 14.47l7.83 -1.84 1.56 15.45 -1.27 9.1 -6.42 0.29 -1.7 -23zm27.87 39.22l32.31 1.27 3.67 -4.02 -0.71 -33.09 -22.29 -1.2 -0.36 -8.6 15.53 0.21 0.21 5.78 6.91 0.14 0.57 -14.46 -33.87 -0.63 -1.48 1.62 -0.49 21.59 1.83 4.09 19.61 -0.28 2.4 3.31 -0.91 12 -10.31 -0.22 -1.34 -9.31 -10.15 1.2 -1.13 20.6zm40.21 0l32.31 1.27 3.67 -4.02 -0.71 -33.09 -22.29 -1.2 -0.36 -8.6 15.53 0.21 0.21 5.78 6.91 0.14 0.57 -14.46 -33.87 -0.63 -1.48 1.62 -0.49 21.59 1.83 4.09 19.61 -0.28 2.4 3.31 -0.91 12 -10.31 -0.22 -1.34 -9.31 -10.15 1.2 -1.13 20.6zm48.95 -53.97l-8.74 54.32 17.07 0.15 0.85 -14.26 6.06 -0.7 1.56 15.52 10.86 -0.71 -8.32 -55.73 -19.34 1.41zm9.18 10.87l4.37 20.17 -6.21 0 1.84 -20.17zm47.41 23.56l0.42 17.43 1.76 3.31 33.8 -1.27 -1.98 -35.91 -20.46 -1.06 0 -6.77 12.56 -1.34 -0.49 3.53 7.33 0 1.98 -13.55 -34.43 1.13 0.49 28.57 20.96 2.12 0 12.56 -8.82 -0.57 -1.48 -8.75 -11.64 0.57zm40.21 -34.29l0.49 50.66 1.91 3.45 31.6 0.78 0 -12.98 -21.3 0.99 -0.43 -10.87 15.24 -3.67 -0.56 -8.04 -13.69 -2.82 -0.14 -7.2 18.2 0.57 -0.56 -10.44 -30.76 -0.43zm38.45 1.27l-1.55 50.23 14.25 1.13 0.56 -38.24 11.57 36.83 10.73 -0.42 -2.26 -52.35 -8.47 1.13 3.11 36.26 -11.71 -35.98 -16.23 1.41zm61.8 -0.56l1.13 20.25 -9.25 0.14 1.2 -20.67 -14.95 -1.27 -0.14 54.18 11.99 0.42 1.48 -24.69 10.16 0.49 1.34 24.34 16.09 -0.56 -4.52 -53.48 -14.53 0.85zm28.99 -0.57l-5.5 8.61 -0.21 33.72 2.68 9.6 29.98 -0.28 3.32 -8.61 -1.06 -37.04 -4.09 -4.87 -25.12 -1.13zm6.63 14.47l7.83 -1.84 1.56 15.45 -1.27 9.1 -6.42 0.29 -1.7 -23zm29.56 -15.6l-1.69 54.33 15.09 0.56 -0.14 -23.56 0.43 0 12.84 23.99 8.74 -1.27 -12.41 -23.43 7.9 -0.56 4.51 -4.94 -1.83 -24.27 -2.26 -1.41 -31.18 0.56zm11.29 7.06l9.87 0 2.12 8.89 -1.55 6.91 -10.02 -0.56 -0.42 -15.24zm34.77 -6.21l-8.74 54.32 17.07 0.15 0.85 -14.26 6.06 -0.7 1.56 15.52 10.86 -0.71 -8.32 -55.73 -19.34 1.41zm9.18 10.87l4.37 20.17 -6.21 0 1.84 -20.17zm47.41 -10.59l0.56 52.21 26.88 0.21 7.62 -4.65 0.07 -39.87 -3.81 -7.61 -31.32 -0.29zm14.11 9.46l4.37 0.98 2.12 1.98 -0.57 31.47 -1.69 1.41 -4.66 -0.43 0.43 -35.41zm25.26 -9.6l0.49 50.66 1.91 3.45 31.6 0.78 0 -12.98 -21.3 0.99 -0.43 -10.87 15.24 -3.67 -0.56 -8.04 -13.69 -2.82 -0.14 -7.2 18.2 0.57 -0.56 -10.44 -30.76 -0.43zm63.07 -0.56l1.41 53.62 10.44 1.83 1.41 -24.13 13.26 -0.7 0 -10.3 -11.99 0.7 0 -12.42 14.39 -1.12 0.85 -8.47 -27.23 -0.14 -2.54 1.13zm34.71 0.42l-8.74 54.32 17.07 0.15 0.85 -14.26 6.06 -0.7 1.56 15.52 10.86 -0.71 -8.32 -55.73 -19.34 1.41zm9.18 10.87l4.37 20.17 -6.21 0 1.84 -20.17zm-5.51 -19.34l0 4.8 5.22 0 6.35 -4.23 -4.51 -4.52 -7.06 3.95zm28.65 19.83l0.63 42.82 12.42 0.22 -0.57 -42.76 8.68 0.35 0.71 -11.85 -28.72 -0.56 -0.98 11.14 7.83 0.64zm26.1 -9.24l2.54 52.91 10.16 -0.99 2.82 -52.35 -15.52 0.43zm22 -1.7l-2.25 53.2 16.22 1.41 -0.7 -44.59 6.06 36.69 10.87 0.7 6.63 -35.27 1.13 42.47 12.42 0 -5.93 -55.45 -13.12 1.83 -5.5 27.38 -6.92 -26.11 -18.91 -2.26zm63.35 -0.42l-8.74 54.32 17.07 0.15 0.85 -14.26 6.06 -0.7 1.56 15.52 10.86 -0.71 -8.32 -55.73 -19.34 1.41zm9.18 10.87l4.37 20.17 -6.21 0 1.84 -20.17zm1189.7 78.7l10.16 54.46 16.93 -1.41 13.12 -52.07 -9.88 -0.56 -9.73 39.93 -5.93 -40.21 -14.67 -0.14zm44.45 1.55l2.54 52.91 10.16 -0.99 2.82 -52.35 -15.52 0.43zm19.75 -2.12l1.55 53.62 22.57 -0.42 -0.84 -10.02 -9.17 0.28 -0.85 -42.61 -13.26 -0.85zm35.62 0l-8.74 54.32 17.07 0.15 0.85 -14.26 6.06 -0.7 1.56 15.52 10.86 -0.71 -8.32 -55.73 -19.34 1.41zm9.18 10.87l4.37 20.17 -6.21 0 1.84 -20.17zm51.08 -10.45l-3.67 53.48 15.66 1.13 -0.42 -41.77 6.49 36.55 8.32 0 6.49 -35.13 4.23 39.5 15.67 -1.97 -5.93 -52.21 -18.34 2.12 -6.78 33.16 -3.66 -35.28 -18.06 0.42zm65.74 -0.42l-8.74 54.32 17.07 0.15 0.85 -14.26 6.06 -0.7 1.56 15.52 10.86 -0.71 -8.32 -55.73 -19.34 1.41zm9.18 10.87l4.37 20.17 -6.21 0 1.84 -20.17zm22.22 -11.72l-1.69 54.33 15.09 0.56 -0.14 -23.56 0.43 0 12.84 23.99 8.74 -1.27 -12.41 -23.43 7.9 -0.56 4.51 -4.94 -1.83 -24.27 -2.26 -1.41 -31.18 0.56zm11.29 7.06l9.87 0 2.12 8.89 -1.55 6.91 -10.02 -0.56 -0.42 -15.24zm28.22 -4.09l2.54 52.91 10.16 -0.99 2.82 -52.35 -15.52 0.43zm24.82 -2.12l-8.74 54.32 17.07 0.15 0.85 -14.26 6.06 -0.7 1.56 15.52 10.86 -0.71 -8.32 -55.73 -19.34 1.41zm9.18 10.87l4.37 20.17 -6.21 0 1.84 -20.17zm24.27 -9.46l-1.55 50.23 14.25 1.13 0.56 -38.24 11.57 36.83 10.73 -0.42 -2.26 -52.35 -8.47 1.13 3.11 36.26 -11.71 -35.98 -16.23 1.41zm48.53 -1.41l-8.74 54.32 17.07 0.15 0.85 -14.26 6.06 -0.7 1.56 15.52 10.86 -0.71 -8.32 -55.73 -19.34 1.41zm9.18 10.87l4.37 20.17 -6.21 0 1.84 -20.17zm-4308.47 584.6l0.42 17.43 1.76 3.31 33.8 -1.27 -1.98 -35.91 -20.46 -1.06 0 -6.77 12.56 -1.34 -0.49 3.53 7.33 0 1.98 -13.55 -34.43 1.13 0.49 28.57 20.96 2.12 0 12.56 -8.82 -0.57 -1.48 -8.75 -11.64 0.57zm48.95 -34.43l-8.74 54.32 17.07 0.15 0.85 -14.26 6.06 -0.7 1.56 15.52 10.86 -0.71 -8.32 -55.73 -19.34 1.41zm9.18 10.87l4.37 20.17 -6.21 0 1.84 -20.17zm24.27 -9.46l-1.55 50.23 14.25 1.13 0.56 -38.24 11.57 36.83 10.73 -0.42 -2.26 -52.35 -8.47 1.13 3.11 36.26 -11.71 -35.98 -16.23 1.41zm45.43 9.95l0.63 42.82 12.42 0.22 -0.57 -42.76 8.68 0.35 0.71 -11.85 -28.72 -0.56 -0.98 11.14 7.83 0.64zm28.21 -11.36l-8.74 54.32 17.07 0.15 0.85 -14.26 6.06 -0.7 1.56 15.52 10.86 -0.71 -8.32 -55.73 -19.34 1.41zm9.18 10.87l4.37 20.17 -6.21 0 1.84 -20.17zm64.76 44.16l4.23 -47.13 12.99 0.71 0.98 -9.31 -34.71 0 -0.84 7.47 6.7 0.71 -1.76 46.42 12.41 1.13zm19.55 -54.89l0.49 50.66 1.91 3.45 31.6 0.78 0 -12.98 -21.3 0.99 -0.43 -10.87 15.24 -3.67 -0.56 -8.04 -13.69 -2.82 -0.14 -7.2 18.2 0.57 -0.56 -10.44 -30.76 -0.43zm40.07 -0.99l-1.69 54.33 15.09 0.56 -0.14 -23.56 0.43 0 12.84 23.99 8.74 -1.27 -12.41 -23.43 7.9 -0.56 4.51 -4.94 -1.83 -24.27 -2.26 -1.41 -31.18 0.56zm11.29 7.06l9.87 0 2.12 8.89 -1.55 6.91 -10.02 -0.56 -0.42 -15.24zm28.22 -6.07l0.49 50.66 1.91 3.45 31.6 0.78 0 -12.98 -21.3 0.99 -0.43 -10.87 15.24 -3.67 -0.56 -8.04 -13.69 -2.82 -0.14 -7.2 18.2 0.57 -0.56 -10.44 -30.76 -0.43zm38.38 -0.56l0.56 20.32 4.66 -0.15 0.28 -6.34 18.06 -0.71 -22.72 24.69 -0.63 14.68 39.72 -0.85 -1.13 -16.23 -6.63 0.29 0.21 4.93 -16.02 0.71 23.29 -29.63 -0.71 -10.3 -38.94 -1.41zm50.64 0.42l-8.74 54.32 17.07 0.15 0.85 -14.26 6.06 -0.7 1.56 15.52 10.86 -0.71 -8.32 -55.73 -19.34 1.41zm9.18 10.87l4.37 20.17 -6.21 0 1.84 -20.17zm-803.19 503.72l11.01 -0.85c0,-0.07 0.07,-0.14 0.07,-0.14l0.99 -12.56 8.96 13.48 13.19 0 -16.86 -24.7 16.15 -1.05 1.35 -18.42 -2.61 -11.07 -31.75 0 -1.27 20.31 -0.14 35 0.91 0zm13.06 -42.83l8.25 -1.2 0 6.99 -8.25 0.99 0 -6.78zm26.03 -11.78l0.49 50.66 1.91 3.45 31.6 0.78 0 -12.98 -21.3 0.99 -0.43 -10.87 15.24 -3.67 -0.56 -8.04 -13.69 -2.82 -0.14 -7.2 18.2 0.57 -0.56 -10.44 -30.76 -0.43zm38.38 53.83l32.31 1.27 3.67 -4.02 -0.71 -33.09 -22.29 -1.2 -0.36 -8.6 15.53 0.21 0.21 5.78 6.91 0.14 0.57 -14.46 -33.87 -0.63 -1.48 1.62 -0.49 21.59 1.83 4.09 19.61 -0.28 2.4 3.31 -0.91 12 -10.31 -0.22 -1.34 -9.31 -10.15 1.2 -1.13 20.6zm40.21 -51.85l2.54 52.91 10.16 -0.99 2.82 -52.35 -15.52 0.43zm19.75 -1.84l0.56 52.21 26.88 0.21 7.62 -4.65 0.07 -39.87 -3.81 -7.61 -31.32 -0.29zm14.11 9.46l4.37 0.98 2.12 1.98 -0.57 31.47 -1.69 1.41 -4.66 -0.43 0.43 -35.41zm25.26 -9.6l0.49 50.66 1.91 3.45 31.6 0.78 0 -12.98 -21.3 0.99 -0.43 -10.87 15.24 -3.67 -0.56 -8.04 -13.69 -2.82 -0.14 -7.2 18.2 0.57 -0.56 -10.44 -30.76 -0.43zm38.45 1.27l-1.55 50.23 14.25 1.13 0.56 -38.24 11.57 36.83 10.73 -0.42 -2.26 -52.35 -8.47 1.13 3.11 36.26 -11.71 -35.98 -16.23 1.41zm45.43 -0.99l-5.64 7.76 1.27 44.17 4.65 3.24 25.4 -1.41 4.66 -13.26 -2.68 -14.11 -12.84 0.99 0.98 15.8 -6.91 1.27 -1.98 -34 3.53 -0.71 3.25 7.34 12.98 -1.41 -2.54 -14.68 -4.66 -2.68 -19.47 1.69zm30.83 1.7l2.54 52.91 10.16 -0.99 2.82 -52.35 -15.52 0.43zm24.82 -2.12l-8.74 54.32 17.07 0.15 0.85 -14.26 6.06 -0.7 1.56 15.52 10.86 -0.71 -8.32 -55.73 -19.34 1.41zm9.18 10.87l4.37 20.17 -6.21 0 1.84 -20.17zm20.53 -10.87l1.55 53.62 22.57 -0.42 -0.84 -10.02 -9.17 0.28 -0.85 -42.61 -13.26 -0.85zm54.03 54.04l29.07 0.99 4.23 -3.81 0.29 -17.36 -6.42 -5 5.01 -4.59 -2.12 -23.99 -4.52 -1.97 -24.2 1.2 -2.25 4.16 0.91 50.37zm12.7 -22.01l8.05 -0.42 2.68 11.43 -11.01 2.32 0.28 -13.33zm-1.13 -23.42l6.21 -1.55 1.55 1.41 0.99 9.73 -8.75 0.71 0 -10.3zm26.25 -8.47l0.49 50.66 1.91 3.45 31.6 0.78 0 -12.98 -21.3 0.99 -0.43 -10.87 15.24 -3.67 -0.56 -8.04 -13.69 -2.82 -0.14 -7.2 18.2 0.57 -0.56 -10.44 -30.76 -0.43zm40.63 0.28l-2.25 53.2 16.22 1.41 -0.7 -44.59 6.06 36.69 10.87 0.7 6.63 -35.27 1.13 42.47 12.42 0 -5.93 -55.45 -13.12 1.83 -5.5 27.38 -6.92 -26.11 -18.91 -2.26zm79.3 0.15l10.16 54.46 16.93 -1.41 13.12 -52.07 -9.88 -0.56 -9.73 39.93 -5.93 -40.21 -14.67 -0.14zm44.45 1.55l2.54 52.91 10.16 -0.99 2.82 -52.35 -15.52 0.43zm19.75 -0.99l12.55 52.07 15.95 -0.57 8.18 -50.79 -13.54 -0.43 -3.81 38.8 -3.81 -38.8 -15.52 -0.28zm40.92 -0.99l0.49 50.66 1.91 3.45 31.6 0.78 0 -12.98 -21.3 0.99 -0.43 -10.87 15.24 -3.67 -0.56 -8.04 -13.69 -2.82 -0.14 -7.2 18.2 0.57 -0.56 -10.44 -30.76 -0.43zm40.07 -0.99l-1.69 54.33 15.09 0.56 -0.14 -23.56 0.43 0 12.84 23.99 8.74 -1.27 -12.41 -23.43 7.9 -0.56 4.51 -4.94 -1.83 -24.27 -2.26 -1.41 -31.18 0.56zm11.29 7.06l9.87 0 2.12 8.89 -1.55 6.91 -10.02 -0.56 -0.42 -15.24zm-454.29 77.11l-10.66 12.49 -4.65 14.81 3.74 17.5 14.53 11.92 1.97 -4.23 -7.12 -9.1 -2.75 -16.09 2.25 -13.89 5.51 -11.64 -2.82 -1.77zm11.85 1.62l-5.64 7.76 1.27 44.17 4.65 3.24 25.4 -1.41 4.66 -13.26 -2.68 -14.11 -12.84 0.99 0.98 15.8 -6.91 1.27 -1.98 -34 3.53 -0.71 3.25 7.34 12.98 -1.41 -2.54 -14.68 -4.66 -2.68 -19.47 1.69zm40.28 -0.14l-5.5 8.61 -0.21 33.72 2.68 9.6 29.98 -0.28 3.32 -8.61 -1.06 -37.04 -4.09 -4.87 -25.12 -1.13zm6.63 14.47l7.83 -1.84 1.56 15.45 -1.27 9.1 -6.42 0.29 -1.7 -23zm49.88 -13.9l1.13 20.25 -9.25 0.14 1.2 -20.67 -14.95 -1.27 -0.14 54.18 11.99 0.42 1.48 -24.69 10.16 0.49 1.34 24.34 16.09 -0.56 -4.52 -53.48 -14.53 0.85zm30.54 -0.85l-8.74 54.32 17.07 0.15 0.85 -14.26 6.06 -0.7 1.56 15.52 10.86 -0.71 -8.32 -55.73 -19.34 1.41zm9.18 10.87l4.37 20.17 -6.21 0 1.84 -20.17zm24.27 -10.59l-1.55 53.76 31.6 0.99 5.36 -6.07 0.15 -20.46 -4.66 -3.52 2.54 -4.38 -2.54 -16.65 -3.67 -3.67 -27.23 0zm15.24 29.21l5.92 0.71 0.99 12.55 -1.27 3.11 -6.07 0 0.43 -16.37zm-1.13 -21.31l4.94 0.15 0.7 3.24 -0.7 8.18 -4.66 0 -0.28 -11.57zm27.79 -7.61l5.51 11.64 2.25 13.89 -2.75 16.09 -7.12 9.1 1.97 4.23 14.54 -11.92 3.73 -17.5 -4.65 -14.81 -10.65 -12.49 -2.83 1.77z"/>
   </g>
  </g>
 </g>
</svg>
